<?xml version="1.0" encoding="UTF-8" standalone="no"?>
<!DOCTYPE svg PUBLIC "-//W3C//DTD SVG 1.1//EN" "http://www.w3.org/Graphics/SVG/1.1/DTD/svg11.dtd">
<svg xmlns="http://www.w3.org/2000/svg" version="1.1" viewBox="0.00 0.00 2333.00 1348.00">
<path fill="#0272cf" d="
  M 1485.64 0.00
  L 1486.03 0.20
  A 0.27 0.26 21.2 0 1 1486.17 0.50
  Q 1388.37 409.59 1290.77 817.90
  Q 1285.73 838.95 1282.49 849.30
  C 1274.07 876.13 1262.58 901.76 1246.18 925.18
  Q 1210.37 976.33 1151.65 1001.17
  C 1111.50 1018.16 1067.46 1024.57 1024.00 1024.57
  Q 261.83 1024.62 142.00 1024.53
  C 115.26 1024.51 86.76 1020.46 62.93 1009.20
  Q 22.20 989.96 8.04 946.38
  C 2.76 930.13 0.90 913.89 0.00 896.83
  L 0.00 883.11
  Q 1.90 842.68 11.98 800.48
  Q 31.94 716.86 93.13 461.42
  Q 97.72 442.23 108.28 416.52
  C 123.61 379.19 147.02 345.30 178.06 319.77
  C 219.83 285.41 272.47 267.53 326.29 264.61
  C 341.35 263.79 356.78 263.89 372.19 263.89
  Q 671.16 263.86 956.71 263.89
  A 0.38 0.38 0.0 0 1 957.08 264.36
  L 908.18 469.38
  A 0.77 0.77 0.0 0 1 907.43 469.97
  Q 620.81 469.97 597.25 469.96
  C 578.23 469.95 558.27 471.04 542.47 480.95
  C 523.10 493.10 515.77 516.24 510.73 537.55
  Q 506.30 556.31 461.18 744.69
  Q 457.40 760.47 455.92 776.75
  C 454.91 787.76 456.12 800.26 462.66 809.42
  C 470.27 820.07 486.09 823.13 498.25 824.04
  Q 510.12 824.93 525.25 824.93
  Q 561.60 824.95 819.81 824.91
  Q 841.76 824.91 859.17 820.95
  C 887.49 814.50 906.35 794.88 918.20 768.95
  Q 926.80 750.14 931.93 728.68
  Q 975.55 546.19 1101.22 20.23
  Q 1104.73 5.56 1106.32 0.00
  L 1485.64 0.00
  Z"
/>
<path fill="#0272cf" d="
  M 1299.76 1348.00
  L 752.11 1348.00
  Q 751.38 1347.70 750.78 1348.00
  L 749.92 1348.00
  L 838.62 1090.56
  A 0.70 0.69 -80.7 0 1 839.28 1090.08
  Q 1098.32 1090.08 1099.25 1090.07
  C 1153.25 1089.28 1207.26 1072.68 1252.82 1044.63
  C 1301.70 1014.53 1338.55 969.66 1351.43 913.16
  Q 1354.72 898.72 1354.80 898.41
  Q 1423.39 619.02 1510.38 264.75
  A 1.28 1.27 6.9 0 1 1511.62 263.79
  L 1879.29 263.79
  A 0.65 0.64 7.0 0 1 1879.92 264.59
  Q 1741.49 839.58 1708.31 977.56
  C 1689.96 1053.90 1661.37 1125.61 1615.73 1188.14
  C 1572.28 1247.68 1513.95 1293.85 1444.69 1320.92
  Q 1382.23 1345.34 1313.52 1347.49
  Q 1306.64 1347.71 1299.76 1348.00
  Z"
/>
<path fill="#0272cf" d="
  M 1964.03 263.79
  L 2332.32 263.79
  A 0.55 0.55 0.0 0 1 2332.85 264.47
  L 2154.14 1024.21
  A 0.55 0.55 0.0 0 1 2153.60 1024.63
  L 1785.31 1024.63
  A 0.55 0.55 0.0 0 1 1784.78 1023.95
  L 1963.49 264.21
  A 0.55 0.55 0.0 0 1 1964.03 263.79
  Z"
/>
</svg>
